<mxfile host="Electron" modified="2023-12-04T13:03:29.694Z" agent="Mozilla/5.0 (Windows NT 10.0; Win64; x64) AppleWebKit/537.36 (KHTML, like Gecko) draw.io/22.1.2 Chrome/114.0.5735.289 Electron/25.9.4 Safari/537.36" etag="eWOyymkZli7kP_8Z0KYI" version="22.1.2" type="device">
  <diagram name="Страница — 1" id="DDf3kt4ldKS9D3DV9dp_">
    <mxGraphModel dx="2200" dy="1980" grid="1" gridSize="10" guides="1" tooltips="1" connect="1" arrows="1" fold="1" page="1" pageScale="1" pageWidth="1169" pageHeight="827" background="#FFFFFF" math="0" shadow="0">
      <root>
        <mxCell id="0" />
        <mxCell id="1" parent="0" />
        <mxCell id="5usyHx1cdEVdQFqIunDD-2" value="Граф работы ядра системы резервирования столиков. Реализация паттерна Saga" style="shape=umlFrame;whiteSpace=wrap;html=1;pointerEvents=0;recursiveResize=0;container=1;collapsible=0;width=230;height=50;" vertex="1" parent="1">
          <mxGeometry x="10" y="10" width="680" height="520" as="geometry" />
        </mxCell>
        <mxCell id="5usyHx1cdEVdQFqIunDD-32" value="" style="edgeStyle=orthogonalEdgeStyle;rounded=0;orthogonalLoop=1;jettySize=auto;html=1;" edge="1" parent="5usyHx1cdEVdQFqIunDD-2" source="5usyHx1cdEVdQFqIunDD-27">
          <mxGeometry relative="1" as="geometry">
            <mxPoint x="180" y="240" as="targetPoint" />
          </mxGeometry>
        </mxCell>
        <mxCell id="5usyHx1cdEVdQFqIunDD-27" value="Получение активных заведений и свободных столиков" style="rounded=1;whiteSpace=wrap;html=1;" vertex="1" parent="5usyHx1cdEVdQFqIunDD-2">
          <mxGeometry x="30" y="210" width="120" height="60" as="geometry" />
        </mxCell>
        <mxCell id="5usyHx1cdEVdQFqIunDD-30" value="" style="edgeStyle=orthogonalEdgeStyle;rounded=0;orthogonalLoop=1;jettySize=auto;html=1;" edge="1" parent="5usyHx1cdEVdQFqIunDD-2" source="5usyHx1cdEVdQFqIunDD-29" target="5usyHx1cdEVdQFqIunDD-27">
          <mxGeometry relative="1" as="geometry" />
        </mxCell>
        <mxCell id="5usyHx1cdEVdQFqIunDD-29" value="Аутентификация&lt;br&gt;пройдена" style="ellipse;whiteSpace=wrap;html=1;" vertex="1" parent="5usyHx1cdEVdQFqIunDD-2">
          <mxGeometry x="30" y="70" width="120" height="80" as="geometry" />
        </mxCell>
        <mxCell id="5usyHx1cdEVdQFqIunDD-52" style="edgeStyle=orthogonalEdgeStyle;rounded=0;orthogonalLoop=1;jettySize=auto;html=1;exitX=1;exitY=0.5;exitDx=0;exitDy=0;entryX=0;entryY=0.5;entryDx=0;entryDy=0;" edge="1" parent="5usyHx1cdEVdQFqIunDD-2" source="5usyHx1cdEVdQFqIunDD-31" target="5usyHx1cdEVdQFqIunDD-35">
          <mxGeometry relative="1" as="geometry" />
        </mxCell>
        <mxCell id="5usyHx1cdEVdQFqIunDD-31" value="Выбораны заведение и столик" style="ellipse;whiteSpace=wrap;html=1;rounded=1;" vertex="1" parent="5usyHx1cdEVdQFqIunDD-2">
          <mxGeometry x="180" y="200" width="130" height="80" as="geometry" />
        </mxCell>
        <mxCell id="5usyHx1cdEVdQFqIunDD-53" value="Бронирование&lt;br&gt;невозможно" style="edgeStyle=orthogonalEdgeStyle;rounded=0;orthogonalLoop=1;jettySize=auto;html=1;exitX=1;exitY=0.5;exitDx=0;exitDy=0;entryX=0;entryY=0.5;entryDx=0;entryDy=0;fontColor=#000099;" edge="1" parent="5usyHx1cdEVdQFqIunDD-2" source="5usyHx1cdEVdQFqIunDD-35" target="5usyHx1cdEVdQFqIunDD-42">
          <mxGeometry x="-0.2" y="20" relative="1" as="geometry">
            <mxPoint as="offset" />
          </mxGeometry>
        </mxCell>
        <mxCell id="5usyHx1cdEVdQFqIunDD-54" style="edgeStyle=orthogonalEdgeStyle;rounded=0;orthogonalLoop=1;jettySize=auto;html=1;exitX=0.5;exitY=1;exitDx=0;exitDy=0;entryX=0.5;entryY=0;entryDx=0;entryDy=0;" edge="1" parent="5usyHx1cdEVdQFqIunDD-2" source="5usyHx1cdEVdQFqIunDD-35" target="5usyHx1cdEVdQFqIunDD-37">
          <mxGeometry relative="1" as="geometry" />
        </mxCell>
        <mxCell id="5usyHx1cdEVdQFqIunDD-55" value="Столик&amp;nbsp;&lt;br&gt;забронирован" style="edgeLabel;html=1;align=center;verticalAlign=middle;resizable=0;points=[];fontColor=#000099;" vertex="1" connectable="0" parent="5usyHx1cdEVdQFqIunDD-54">
          <mxGeometry x="-0.2533" relative="1" as="geometry">
            <mxPoint x="-40" as="offset" />
          </mxGeometry>
        </mxCell>
        <mxCell id="5usyHx1cdEVdQFqIunDD-35" value="Запрос в ресторан" style="rhombus;whiteSpace=wrap;html=1;rounded=1;" vertex="1" parent="5usyHx1cdEVdQFqIunDD-2">
          <mxGeometry x="360" y="200" width="80" height="80" as="geometry" />
        </mxCell>
        <mxCell id="5usyHx1cdEVdQFqIunDD-40" value="" style="edgeStyle=orthogonalEdgeStyle;rounded=0;orthogonalLoop=1;jettySize=auto;html=1;" edge="1" parent="5usyHx1cdEVdQFqIunDD-2" target="5usyHx1cdEVdQFqIunDD-39">
          <mxGeometry relative="1" as="geometry">
            <mxPoint x="400" y="390" as="sourcePoint" />
          </mxGeometry>
        </mxCell>
        <mxCell id="5usyHx1cdEVdQFqIunDD-37" value="Уведомление о подтверждение брони" style="whiteSpace=wrap;html=1;rounded=1;" vertex="1" parent="5usyHx1cdEVdQFqIunDD-2">
          <mxGeometry x="340" y="330" width="120" height="60" as="geometry" />
        </mxCell>
        <mxCell id="5usyHx1cdEVdQFqIunDD-50" value="" style="edgeStyle=orthogonalEdgeStyle;rounded=0;orthogonalLoop=1;jettySize=auto;html=1;" edge="1" parent="5usyHx1cdEVdQFqIunDD-2" source="5usyHx1cdEVdQFqIunDD-39" target="5usyHx1cdEVdQFqIunDD-49">
          <mxGeometry relative="1" as="geometry" />
        </mxCell>
        <mxCell id="5usyHx1cdEVdQFqIunDD-39" value="Сохранение&lt;br&gt;истории" style="whiteSpace=wrap;html=1;rounded=1;" vertex="1" parent="5usyHx1cdEVdQFqIunDD-2">
          <mxGeometry x="340" y="420" width="120" height="60" as="geometry" />
        </mxCell>
        <mxCell id="5usyHx1cdEVdQFqIunDD-48" style="edgeStyle=orthogonalEdgeStyle;rounded=0;orthogonalLoop=1;jettySize=auto;html=1;exitX=0.5;exitY=0;exitDx=0;exitDy=0;entryX=0.75;entryY=0;entryDx=0;entryDy=0;" edge="1" parent="5usyHx1cdEVdQFqIunDD-2" source="5usyHx1cdEVdQFqIunDD-42" target="5usyHx1cdEVdQFqIunDD-27">
          <mxGeometry relative="1" as="geometry" />
        </mxCell>
        <mxCell id="5usyHx1cdEVdQFqIunDD-42" value="Уведомление клиента о невозможности бронирование" style="whiteSpace=wrap;html=1;rounded=1;" vertex="1" parent="5usyHx1cdEVdQFqIunDD-2">
          <mxGeometry x="515" y="210" width="120" height="60" as="geometry" />
        </mxCell>
        <mxCell id="5usyHx1cdEVdQFqIunDD-49" value="Коненц" style="shape=process;whiteSpace=wrap;html=1;backgroundOutline=1;rounded=1;" vertex="1" parent="5usyHx1cdEVdQFqIunDD-2">
          <mxGeometry x="510" y="420" width="120" height="60" as="geometry" />
        </mxCell>
      </root>
    </mxGraphModel>
  </diagram>
</mxfile>
